<svg width="29" height="34" viewBox="0 0 29 34" fill="none" xmlns="http://www.w3.org/2000/svg">
<g filter="url(#filter0_d_158_4175)">
<rect x="2" width="25" height="25" rx="3.83724" fill="#54A5D3"/>
</g>
<rect x="4.77795" y="2.77771" width="19.4445" height="19.4445" rx="1.91862" fill="white"/>
<rect x="6.05566" y="25" width="2.77778" height="5.27778" fill="#474848"/>
<rect x="20.1667" y="25" width="2.77778" height="5.27778" fill="#474848"/>
<rect x="3.77795" y="30.2778" width="21.4444" height="2.77778" rx="1.38889" fill="url(#paint0_linear_158_4175)" fill-opacity="0.3"/>
<ellipse cx="14.4917" cy="12.5" rx="6.38889" ry="6.38889" fill="#67AE77"/>
<ellipse cx="14.464" cy="12.4722" rx="5.69444" ry="5.69445" fill="#FFFCFC"/>
<path d="M14.1905 9.08635C15.082 9.08635 15.7312 9.28015 16.1382 9.66775C16.5516 10.0489 16.7584 10.5754 16.7584 11.2472C16.7584 11.5508 16.7131 11.8415 16.6227 12.1193C16.5323 12.3906 16.3804 12.6361 16.1673 12.8558C15.9605 13.0689 15.686 13.2369 15.3436 13.3596C15.0012 13.4824 14.5781 13.5437 14.0742 13.5437H13.4444V16.005H11.9812V9.08635H14.1905ZM14.113 10.2879H13.4444V12.3422H13.9289C14.2067 12.3422 14.4457 12.3067 14.6459 12.2356C14.8462 12.1645 15.0012 12.0515 15.1111 11.8964C15.2209 11.7414 15.2758 11.5411 15.2758 11.2957C15.2758 10.9533 15.1821 10.7014 14.9948 10.5399C14.8074 10.3719 14.5135 10.2879 14.113 10.2879Z" fill="#474848"/>
<defs>
<filter id="filter0_d_158_4175" x="0.98" y="0" width="27.04" height="27.04" filterUnits="userSpaceOnUse" color-interpolation-filters="sRGB">
<feFlood flood-opacity="0" result="BackgroundImageFix"/>
<feColorMatrix in="SourceAlpha" type="matrix" values="0 0 0 0 0 0 0 0 0 0 0 0 0 0 0 0 0 0 127 0" result="hardAlpha"/>
<feOffset dy="1.02"/>
<feGaussianBlur stdDeviation="0.51"/>
<feComposite in2="hardAlpha" operator="out"/>
<feColorMatrix type="matrix" values="0 0 0 0 0 0 0 0 0 0 0 0 0 0 0 0 0 0 0.25 0"/>
<feBlend mode="normal" in2="BackgroundImageFix" result="effect1_dropShadow_158_4175"/>
<feBlend mode="normal" in="SourceGraphic" in2="effect1_dropShadow_158_4175" result="shape"/>
</filter>
<linearGradient id="paint0_linear_158_4175" x1="17.2845" y1="27.5785" x2="16.2876" y2="35.4422" gradientUnits="userSpaceOnUse">
<stop stop-opacity="0"/>
<stop offset="0.630208"/>
</linearGradient>
</defs>
</svg>
